<mxfile host="app.diagrams.net" modified="2021-07-03T19:00:47.007Z" agent="5.0 (Windows)" etag="mnGsevBpEdsQvX9BmJOW" version="14.8.4" type="github">
  <diagram id="XHym7e1LDxJpUd2Js0SO" name="Page-1">
    <mxGraphModel dx="1162" dy="791" grid="1" gridSize="10" guides="1" tooltips="1" connect="1" arrows="1" fold="1" page="1" pageScale="1" pageWidth="827" pageHeight="1169" math="0" shadow="0">
      <root>
        <mxCell id="0" />
        <mxCell id="1" parent="0" />
        <mxCell id="elmdtfgE0AhxXPL-aLRb-28" value="" style="rounded=0;whiteSpace=wrap;html=1;strokeWidth=2;fillColor=#d5e8d4;strokeColor=#82b366;" vertex="1" parent="1">
          <mxGeometry x="700" y="430" width="100" height="160" as="geometry" />
        </mxCell>
        <mxCell id="elmdtfgE0AhxXPL-aLRb-29" value="" style="rounded=0;whiteSpace=wrap;html=1;strokeWidth=2;fillColor=#fff2cc;strokeColor=#d6b656;" vertex="1" parent="1">
          <mxGeometry x="400" y="200" width="400" height="160" as="geometry" />
        </mxCell>
        <mxCell id="elmdtfgE0AhxXPL-aLRb-27" value="" style="rounded=0;whiteSpace=wrap;html=1;strokeWidth=2;fillColor=#fff2cc;strokeColor=#d6b656;" vertex="1" parent="1">
          <mxGeometry x="400" y="430" width="300" height="160" as="geometry" />
        </mxCell>
        <mxCell id="elmdtfgE0AhxXPL-aLRb-8" style="edgeStyle=orthogonalEdgeStyle;rounded=0;orthogonalLoop=1;jettySize=auto;html=1;exitX=1;exitY=0.5;exitDx=0;exitDy=0;strokeWidth=3;" edge="1" parent="1" source="elmdtfgE0AhxXPL-aLRb-1">
          <mxGeometry relative="1" as="geometry">
            <mxPoint x="400" y="280" as="targetPoint" />
          </mxGeometry>
        </mxCell>
        <mxCell id="elmdtfgE0AhxXPL-aLRb-1" value="&lt;font style=&quot;font-size: 24px&quot;&gt;DATA&lt;sub&gt;1&lt;/sub&gt;&lt;/font&gt;" style="ellipse;whiteSpace=wrap;html=1;aspect=fixed;strokeWidth=2;fillColor=#fff2cc;strokeColor=#d6b656;" vertex="1" parent="1">
          <mxGeometry x="240" y="240" width="80" height="80" as="geometry" />
        </mxCell>
        <mxCell id="elmdtfgE0AhxXPL-aLRb-9" style="edgeStyle=orthogonalEdgeStyle;rounded=0;orthogonalLoop=1;jettySize=auto;html=1;exitX=1;exitY=0.5;exitDx=0;exitDy=0;strokeWidth=3;" edge="1" parent="1">
          <mxGeometry relative="1" as="geometry">
            <mxPoint x="880" y="280" as="targetPoint" />
            <mxPoint x="800" y="280" as="sourcePoint" />
          </mxGeometry>
        </mxCell>
        <mxCell id="elmdtfgE0AhxXPL-aLRb-5" value="" style="endArrow=none;dashed=1;html=1;exitX=0.75;exitY=1;exitDx=0;exitDy=0;entryX=0.75;entryY=0;entryDx=0;entryDy=0;strokeWidth=3;" edge="1" parent="1">
          <mxGeometry width="50" height="50" relative="1" as="geometry">
            <mxPoint x="700" y="360" as="sourcePoint" />
            <mxPoint x="700" y="200" as="targetPoint" />
          </mxGeometry>
        </mxCell>
        <mxCell id="elmdtfgE0AhxXPL-aLRb-6" value="&lt;font style=&quot;font-size: 24px&quot;&gt;Model&lt;/font&gt;&lt;font size=&quot;1&quot;&gt;&lt;sub style=&quot;font-size: 20px&quot;&gt;1&lt;/sub&gt;&lt;/font&gt; " style="text;html=1;strokeColor=none;fillColor=none;align=center;verticalAlign=middle;whiteSpace=wrap;rounded=0;" vertex="1" parent="1">
          <mxGeometry x="440" y="260" width="220" height="40" as="geometry" />
        </mxCell>
        <mxCell id="elmdtfgE0AhxXPL-aLRb-10" value="&lt;font style=&quot;font-size: 24px&quot;&gt;Prediction&lt;/font&gt;" style="rhombus;whiteSpace=wrap;html=1;strokeWidth=2;fillColor=#fff2cc;strokeColor=#d6b656;" vertex="1" parent="1">
          <mxGeometry x="880" y="210" width="150" height="140" as="geometry" />
        </mxCell>
        <mxCell id="elmdtfgE0AhxXPL-aLRb-12" value="" style="shape=curlyBracket;whiteSpace=wrap;html=1;rounded=1;flipH=1;strokeWidth=4;rotation=90;" vertex="1" parent="1">
          <mxGeometry x="540" y="252.5" width="20" height="295" as="geometry" />
        </mxCell>
        <mxCell id="elmdtfgE0AhxXPL-aLRb-14" value="&lt;font style=&quot;font-size: 20px&quot;&gt;Generischer/Vorhandener Datensatz&lt;/font&gt;" style="text;html=1;strokeColor=none;fillColor=none;align=center;verticalAlign=middle;whiteSpace=wrap;rounded=0;" vertex="1" parent="1">
          <mxGeometry x="205" y="110" width="150" height="60" as="geometry" />
        </mxCell>
        <mxCell id="elmdtfgE0AhxXPL-aLRb-15" value="&lt;font style=&quot;font-size: 20px&quot;&gt;Generisches/Vortrainiertes Model&lt;br&gt;&lt;/font&gt;" style="text;html=1;strokeColor=none;fillColor=none;align=center;verticalAlign=middle;whiteSpace=wrap;rounded=0;" vertex="1" parent="1">
          <mxGeometry x="410" y="110" width="390" height="60" as="geometry" />
        </mxCell>
        <mxCell id="elmdtfgE0AhxXPL-aLRb-17" style="edgeStyle=orthogonalEdgeStyle;rounded=0;orthogonalLoop=1;jettySize=auto;html=1;exitX=1;exitY=0.5;exitDx=0;exitDy=0;strokeWidth=3;" edge="1" parent="1" source="elmdtfgE0AhxXPL-aLRb-18">
          <mxGeometry relative="1" as="geometry">
            <mxPoint x="400" y="510" as="targetPoint" />
          </mxGeometry>
        </mxCell>
        <mxCell id="elmdtfgE0AhxXPL-aLRb-18" value="&lt;font style=&quot;font-size: 24px&quot;&gt;DATA&lt;sub&gt;2&lt;/sub&gt;&lt;/font&gt;" style="ellipse;whiteSpace=wrap;html=1;aspect=fixed;strokeWidth=2;fillColor=#d5e8d4;strokeColor=#82b366;" vertex="1" parent="1">
          <mxGeometry x="240" y="470" width="80" height="80" as="geometry" />
        </mxCell>
        <mxCell id="elmdtfgE0AhxXPL-aLRb-19" style="edgeStyle=orthogonalEdgeStyle;rounded=0;orthogonalLoop=1;jettySize=auto;html=1;exitX=1;exitY=0.5;exitDx=0;exitDy=0;strokeWidth=3;" edge="1" parent="1">
          <mxGeometry relative="1" as="geometry">
            <mxPoint x="880" y="510" as="targetPoint" />
            <mxPoint x="800" y="510" as="sourcePoint" />
          </mxGeometry>
        </mxCell>
        <mxCell id="elmdtfgE0AhxXPL-aLRb-21" value="" style="endArrow=none;dashed=1;html=1;exitX=0.75;exitY=1;exitDx=0;exitDy=0;entryX=0.75;entryY=0;entryDx=0;entryDy=0;strokeWidth=3;" edge="1" parent="1">
          <mxGeometry width="50" height="50" relative="1" as="geometry">
            <mxPoint x="700" y="590" as="sourcePoint" />
            <mxPoint x="700" y="430" as="targetPoint" />
          </mxGeometry>
        </mxCell>
        <mxCell id="elmdtfgE0AhxXPL-aLRb-22" value="&lt;font style=&quot;font-size: 24px&quot;&gt;Model&lt;sub&gt;1&lt;/sub&gt;&lt;/font&gt;&lt;font style=&quot;font-size: 24px&quot;&gt;&#39;&lt;/font&gt;" style="text;html=1;strokeColor=none;fillColor=none;align=center;verticalAlign=middle;whiteSpace=wrap;rounded=0;" vertex="1" parent="1">
          <mxGeometry x="440" y="490" width="220" height="40" as="geometry" />
        </mxCell>
        <mxCell id="elmdtfgE0AhxXPL-aLRb-23" value="&lt;font style=&quot;font-size: 24px&quot;&gt;Prediction&lt;/font&gt;" style="rhombus;whiteSpace=wrap;html=1;strokeWidth=2;fillColor=#d5e8d4;strokeColor=#82b366;" vertex="1" parent="1">
          <mxGeometry x="880" y="440" width="150" height="140" as="geometry" />
        </mxCell>
        <mxCell id="elmdtfgE0AhxXPL-aLRb-30" value="&lt;font style=&quot;font-size: 20px&quot;&gt;Spezifischer Datensatz&lt;/font&gt;" style="text;html=1;strokeColor=none;fillColor=none;align=center;verticalAlign=middle;whiteSpace=wrap;rounded=0;" vertex="1" parent="1">
          <mxGeometry x="205" y="610" width="150" height="60" as="geometry" />
        </mxCell>
        <mxCell id="elmdtfgE0AhxXPL-aLRb-31" value="&lt;font style=&quot;font-size: 24px&quot;&gt;Vortrainiertes Model&lt;/font&gt;" style="text;html=1;strokeColor=none;fillColor=none;align=center;verticalAlign=middle;whiteSpace=wrap;rounded=0;" vertex="1" parent="1">
          <mxGeometry x="460" y="610" width="150" height="60" as="geometry" />
        </mxCell>
        <mxCell id="elmdtfgE0AhxXPL-aLRb-32" value="&lt;font style=&quot;font-size: 24px&quot;&gt;Trainierbare Modelle/Schichten&lt;br&gt;&lt;/font&gt;" style="text;html=1;strokeColor=none;fillColor=none;align=center;verticalAlign=middle;whiteSpace=wrap;rounded=0;" vertex="1" parent="1">
          <mxGeometry x="675" y="610" width="150" height="60" as="geometry" />
        </mxCell>
        <mxCell id="elmdtfgE0AhxXPL-aLRb-35" value="" style="rounded=0;whiteSpace=wrap;html=1;strokeWidth=2;fillColor=none;strokeColor=none;" vertex="1" parent="1">
          <mxGeometry x="120" y="80" width="960" height="640" as="geometry" />
        </mxCell>
      </root>
    </mxGraphModel>
  </diagram>
</mxfile>
